<svg width="297" height="56" viewBox="0 0 297 56" fill="none" xmlns="http://www.w3.org/2000/svg">
<path d="M32.5203 53.8729C33.0688 51.0775 32.1827 48.6186 30.7792 46.2853C29.5348 44.2112 27.9251 42.439 26.2301 40.7383C23.4393 37.9371 20.3881 35.416 17.5363 32.6805C15.7065 30.9268 13.8951 29.1523 12.5124 27.0079C11.5445 25.51 10.8739 23.8887 10.7379 22.0843C10.5789 19.9733 11.2944 18.1666 12.6841 16.6099C13.425 15.7776 14.2964 15.0712 15.264 14.5185C15.3792 14.454 15.4944 14.3192 15.6235 14.4148C15.7237 14.4874 15.6696 14.6291 15.6442 14.7398C15.2893 16.2527 15.7088 17.6308 16.4324 18.9305C17.9211 21.6072 20.1415 23.6548 22.3642 25.6886C25.745 28.7835 29.347 31.6342 32.5364 34.9378C33.9503 36.4012 35.3111 37.9095 36.2963 39.7116C38.1929 43.1626 38.0062 46.5757 36.0854 49.9472C35.2408 51.4324 34.1116 52.678 32.8095 53.7727C32.7427 53.8303 32.6839 53.9259 32.5203 53.8729Z" fill="white"/>
<path d="M40.1574 41.9678C40.8891 38.9062 39.337 36.74 37.6132 34.6901C35.5714 32.2634 33.1667 30.1893 30.7849 28.1026C27.6853 25.3833 24.4913 22.7596 21.7973 19.615C20.3765 17.9581 19.1194 16.1893 18.5778 14.0312C17.86 11.2 18.4131 8.55445 19.8972 6.08284C20.6989 4.74734 21.7216 3.55778 22.9219 2.56498C23.0034 2.50275 23.088 2.44468 23.1754 2.39099C23.3298 2.50622 23.2906 2.63066 23.271 2.73667C22.9161 5.40762 23.7746 7.7686 25.1388 9.99593C26.7693 12.653 28.9413 14.855 31.1756 16.9902C34.0631 19.7441 37.1593 22.2733 39.9639 25.1182C41.6254 26.804 43.1902 28.575 44.21 30.7413C45.7609 34.0552 45.5362 37.3622 42.8042 40.0527C42.032 40.8309 41.138 41.4777 40.1574 41.9678Z" fill="#D59343"/>
<path d="M24.8589 55.8514C25.1124 54.0078 24.3046 52.5467 23.2549 51.1732C22.6728 50.4379 22.0439 49.7409 21.3721 49.0864C19.9986 47.7037 18.5422 46.3959 17.3277 44.8542C16.0602 43.2525 15.8724 41.8583 16.7873 40.1518C17.1744 39.4305 17.7713 38.897 18.4454 38.4464C18.647 38.3116 18.8406 38.2483 18.7784 38.6008C18.4788 40.312 19.3672 41.5806 20.357 42.7905C21.7777 44.5258 23.5061 45.9753 24.9833 47.6611C25.7899 48.5829 26.5826 49.5278 26.903 50.7353C27.3743 52.5087 26.7716 54.0009 25.564 55.3018C25.382 55.4988 25.2184 55.7143 25.0467 55.9217L24.8589 55.8514Z" fill="white"/>
<path d="M31.2264 0.115234C30.7228 2.61449 32.306 4.16544 33.7498 5.73252C35.2777 7.39293 37.0015 8.87244 38.3497 10.7045C40.1 13.0793 39.7174 15.8114 37.391 17.6435C37.3633 17.6239 37.3115 17.602 37.3126 17.5847C37.4774 15.6259 36.5602 14.0876 35.3768 12.6553C34.0056 10.9949 32.3487 9.61334 30.8991 8.03128C30.1133 7.17285 29.2998 6.31902 28.8827 5.20363C28.2743 3.57433 28.7951 2.20774 29.952 1.02207C30.3046 0.659103 30.671 0.285769 31.2264 0.115234Z" fill="#D59343"/>
<path d="M76.744 42.72C74.512 42.72 72.544 42.18 70.84 41.1C69.16 40.02 67.864 38.556 66.952 36.708C66.04 34.836 65.584 32.76 65.584 30.48C65.584 28.128 66.076 25.956 67.06 23.964C68.068 21.972 69.424 20.4 71.128 19.248C72.856 18.096 74.728 17.52 76.744 17.52C78.664 17.52 80.344 17.796 81.784 18.348C83.248 18.876 84.328 19.56 85.024 20.4C85.432 20.904 85.684 21.576 85.78 22.416C85.876 23.232 85.924 24.36 85.924 25.8H85.204C84.748 23.472 83.908 21.756 82.684 20.652C81.46 19.524 79.84 18.96 77.824 18.96C75.232 18.96 73.144 19.872 71.56 21.696C69.976 23.52 69.184 26.448 69.184 30.48C69.184 32.376 69.484 34.14 70.084 35.772C70.708 37.404 71.668 38.736 72.964 39.768C74.26 40.776 75.88 41.28 77.824 41.28C79.576 41.28 81.1 40.86 82.396 40.02C83.716 39.18 84.892 37.92 85.924 36.24L86.644 36.78C85.54 38.94 84.172 40.476 82.54 41.388C80.932 42.276 79 42.72 76.744 42.72ZM89.8214 29.4C89.8214 28.176 89.6534 27.276 89.3174 26.7C88.9814 26.1 88.3094 25.8 87.3014 25.8H86.9414V25.08H89.8214C90.7334 25.08 91.4174 25.212 91.8734 25.476C92.3534 25.716 92.6894 26.124 92.8814 26.7H93.0614C93.4934 26.148 94.0694 25.68 94.7894 25.296C95.5334 24.912 96.3974 24.72 97.3814 24.72C98.3414 24.72 99.0614 24.9 99.5414 25.26C99.9494 25.572 100.369 26.112 100.801 26.88L99.3614 27.96C99.0974 27.6 98.7134 27.336 98.2094 27.168C97.7054 26.976 97.1294 26.88 96.4814 26.88C95.7614 26.88 95.1014 27.048 94.5014 27.384C93.9014 27.696 93.4214 28.128 93.0614 28.68V42H89.8214V29.4ZM108.998 42.36C107.198 42.36 105.722 41.88 104.57 40.92C103.442 39.96 102.878 38.28 102.878 35.88V29.4C102.878 28.176 102.71 27.276 102.374 26.7C102.038 26.1 101.366 25.8 100.358 25.8H99.998V25.08H102.878C103.766 25.08 104.426 25.2 104.858 25.44C105.314 25.656 105.638 26.064 105.83 26.664C106.022 27.264 106.118 28.176 106.118 29.4V35.88C106.118 37.56 106.49 38.796 107.234 39.588C108.002 40.356 108.95 40.74 110.078 40.74C111.35 40.74 112.55 40.104 113.678 38.832V25.08H116.918V42H115.118L113.858 40.56H113.678C113.174 41.064 112.514 41.496 111.698 41.856C110.906 42.192 110.006 42.36 108.998 42.36ZM126.688 42.36C124.6 42.36 122.992 41.532 121.864 39.876C120.76 38.22 120.208 36.108 120.208 33.54C120.208 30.972 120.784 28.86 121.936 27.204C123.112 25.548 124.816 24.72 127.048 24.72C127.96 24.72 128.764 24.816 129.46 25.008C130.156 25.2 130.852 25.464 131.548 25.8V22.56C131.548 21.336 131.38 20.436 131.044 19.86C130.708 19.26 130.036 18.96 129.028 18.96H128.308V18.24H131.548C132.436 18.24 133.096 18.36 133.528 18.6C133.984 18.816 134.308 19.224 134.5 19.824C134.692 20.424 134.788 21.336 134.788 22.56V42H132.988L131.728 40.38H131.548C131.02 40.98 130.396 41.46 129.676 41.82C128.98 42.18 127.984 42.36 126.688 42.36ZM127.768 40.92C128.752 40.92 129.496 40.74 130 40.38C130.504 40.02 131.02 39.48 131.548 38.76V27.24C130.828 26.904 130.204 26.64 129.676 26.448C129.148 26.256 128.632 26.16 128.128 26.16C126.592 26.16 125.452 26.832 124.708 28.176C123.988 29.52 123.628 31.308 123.628 33.54C123.628 35.748 123.976 37.536 124.672 38.904C125.368 40.248 126.4 40.92 127.768 40.92ZM145.575 42.36C143.943 42.36 142.563 41.976 141.435 41.208C140.307 40.416 139.455 39.36 138.879 38.04C138.303 36.696 138.015 35.196 138.015 33.54C138.015 31.908 138.303 30.42 138.879 29.076C139.455 27.732 140.283 26.676 141.363 25.908C142.467 25.116 143.751 24.72 145.215 24.72C147.639 24.72 149.439 25.404 150.615 26.772C151.815 28.116 152.415 30.072 152.415 32.64L152.343 34.08H141.435C141.435 36.096 141.867 37.74 142.731 39.012C143.595 40.284 144.783 40.92 146.295 40.92C147.423 40.92 148.371 40.68 149.139 40.2C149.931 39.72 150.663 39 151.335 38.04L152.055 38.58C151.263 39.9 150.339 40.86 149.283 41.46C148.227 42.06 146.991 42.36 145.575 42.36ZM148.995 32.64C148.995 30.528 148.683 28.92 148.059 27.816C147.435 26.712 146.487 26.16 145.215 26.16C144.495 26.16 143.847 26.448 143.271 27.024C142.695 27.576 142.239 28.344 141.903 29.328C141.591 30.312 141.435 31.416 141.435 32.64H148.995ZM173.789 42.72C171.557 42.72 169.589 42.168 167.885 41.064C166.205 39.96 164.909 38.448 163.997 36.528C163.085 34.608 162.629 32.472 162.629 30.12C162.629 27.768 163.085 25.632 163.997 23.712C164.909 21.792 166.205 20.28 167.885 19.176C169.589 18.072 171.557 17.52 173.789 17.52C176.021 17.52 177.977 18.072 179.657 19.176C181.361 20.28 182.669 21.792 183.581 23.712C184.493 25.632 184.949 27.768 184.949 30.12C184.949 32.472 184.493 34.608 183.581 36.528C182.669 38.448 181.361 39.96 179.657 41.064C177.977 42.168 176.021 42.72 173.789 42.72ZM173.789 41.28C175.349 41.28 176.693 40.824 177.821 39.912C178.973 39 179.849 37.716 180.449 36.06C181.049 34.38 181.349 32.4 181.349 30.12C181.349 27.84 181.049 25.872 180.449 24.216C179.849 22.536 178.973 21.24 177.821 20.328C176.693 19.416 175.349 18.96 173.789 18.96C172.229 18.96 170.873 19.416 169.721 20.328C168.593 21.24 167.729 22.536 167.129 24.216C166.529 25.872 166.229 27.84 166.229 30.12C166.229 32.4 166.529 34.38 167.129 36.06C167.729 37.716 168.593 39 169.721 39.912C170.873 40.824 172.229 41.28 173.789 41.28ZM190.102 22.92C189.55 22.92 189.07 22.692 188.662 22.236C188.278 21.78 188.086 21.24 188.086 20.616C188.086 20.112 188.23 19.716 188.518 19.428C188.83 19.14 189.238 18.996 189.742 18.996C190.294 18.996 190.762 19.224 191.146 19.68C191.554 20.136 191.758 20.676 191.758 21.3C191.758 21.804 191.602 22.2 191.29 22.488C191.002 22.776 190.606 22.92 190.102 22.92ZM188.734 29.4C188.734 28.176 188.566 27.276 188.23 26.7C187.894 26.1 187.222 25.8 186.214 25.8H185.494V25.08H188.734C189.622 25.08 190.282 25.2 190.714 25.44C191.17 25.656 191.494 26.064 191.686 26.664C191.878 27.264 191.974 28.176 191.974 29.4V42H188.734V29.4ZM196.478 22.56C196.478 21.336 196.31 20.436 195.974 19.86C195.638 19.26 194.966 18.96 193.958 18.96H193.238V18.24H196.478C197.366 18.24 198.026 18.36 198.458 18.6C198.914 18.816 199.238 19.224 199.43 19.824C199.622 20.424 199.718 21.336 199.718 22.56V42H196.478V22.56ZM215.437 19.68C212.437 19.68 210.937 21.06 210.937 23.82H210.217V21.12C210.217 19.2 211.237 18.24 213.277 18.24H230.017V19.68H221.917V42H218.677V19.68H215.437ZM235.895 42.36C234.263 42.36 232.847 41.976 231.647 41.208C230.447 40.416 229.535 39.348 228.911 38.004C228.287 36.66 227.975 35.172 227.975 33.54C227.975 31.908 228.287 30.42 228.911 29.076C229.535 27.732 230.447 26.676 231.647 25.908C232.847 25.116 234.263 24.72 235.895 24.72C237.527 24.72 238.943 25.116 240.143 25.908C241.343 26.676 242.255 27.732 242.879 29.076C243.503 30.42 243.815 31.908 243.815 33.54C243.815 35.172 243.503 36.66 242.879 38.004C242.255 39.348 241.343 40.416 240.143 41.208C238.943 41.976 237.527 42.36 235.895 42.36ZM235.895 40.92C236.783 40.92 237.563 40.596 238.235 39.948C238.931 39.3 239.459 38.412 239.819 37.284C240.203 36.156 240.395 34.908 240.395 33.54C240.395 32.172 240.203 30.924 239.819 29.796C239.459 28.668 238.931 27.78 238.235 27.132C237.563 26.484 236.783 26.16 235.895 26.16C235.007 26.16 234.215 26.484 233.519 27.132C232.847 27.78 232.319 28.668 231.935 29.796C231.575 30.924 231.395 32.172 231.395 33.54C231.395 34.908 231.575 36.156 231.935 37.284C232.319 38.412 232.847 39.3 233.519 39.948C234.215 40.596 235.007 40.92 235.895 40.92ZM252.617 42.36C250.529 42.36 248.921 41.532 247.793 39.876C246.689 38.22 246.137 36.108 246.137 33.54C246.137 30.972 246.713 28.86 247.865 27.204C249.041 25.548 250.745 24.72 252.977 24.72C253.889 24.72 254.693 24.816 255.389 25.008C256.085 25.2 256.781 25.464 257.477 25.8V22.56C257.477 21.336 257.309 20.436 256.973 19.86C256.637 19.26 255.965 18.96 254.957 18.96H254.237V18.24H257.477C258.365 18.24 259.025 18.36 259.457 18.6C259.913 18.816 260.237 19.224 260.429 19.824C260.621 20.424 260.717 21.336 260.717 22.56V42H258.917L257.657 40.38H257.477C256.949 40.98 256.325 41.46 255.605 41.82C254.909 42.18 253.913 42.36 252.617 42.36ZM253.697 40.92C254.681 40.92 255.425 40.74 255.929 40.38C256.433 40.02 256.949 39.48 257.477 38.76V27.24C256.757 26.904 256.133 26.64 255.605 26.448C255.077 26.256 254.561 26.16 254.057 26.16C252.521 26.16 251.381 26.832 250.637 28.176C249.917 29.52 249.557 31.308 249.557 33.54C249.557 35.748 249.905 37.536 250.601 38.904C251.297 40.248 252.329 40.92 253.697 40.92ZM268.948 42.36C268.18 42.36 267.4 42.204 266.608 41.892C265.816 41.556 265.132 41.016 264.556 40.272C264.004 39.528 263.728 38.544 263.728 37.32C263.728 35.496 264.568 34.2 266.248 33.432C267.952 32.664 270.172 32.28 272.908 32.28H273.988C273.988 29.928 273.664 28.32 273.016 27.456C272.368 26.592 271.432 26.16 270.208 26.16C269.128 26.16 268.264 26.388 267.616 26.844C266.968 27.3 266.512 28.092 266.248 29.22H264.628C264.628 28.404 264.676 27.768 264.772 27.312C264.868 26.832 265.12 26.388 265.528 25.98C265.96 25.548 266.668 25.236 267.652 25.044C268.66 24.828 269.752 24.72 270.928 24.72C272.872 24.72 274.408 25.248 275.536 26.304C276.664 27.336 277.228 29.328 277.228 32.28V42H275.428L274.168 40.38H273.988C273.556 40.932 272.92 41.4 272.08 41.784C271.24 42.168 270.196 42.36 268.948 42.36ZM270.568 40.74C271.36 40.74 272.02 40.548 272.548 40.164C273.076 39.78 273.556 39.252 273.988 38.58V33.72H272.908C271.132 33.72 269.728 34.056 268.696 34.728C267.664 35.376 267.148 36.24 267.148 37.32C267.148 38.424 267.472 39.276 268.12 39.876C268.792 40.452 269.608 40.74 270.568 40.74ZM282.085 48.12C283.261 48.12 284.221 47.844 284.965 47.292C285.733 46.764 286.393 45.78 286.945 44.34L287.665 42.36L281.905 28.32C281.233 26.592 279.913 25.632 277.945 25.44V24.72H281.005C283.093 24.72 284.533 25.68 285.325 27.6L289.429 37.572L293.965 25.08H295.765L288.745 44.34C288.049 46.236 287.281 47.52 286.441 48.192C285.601 48.864 284.509 49.2 283.165 49.2H282.085V48.12Z" fill="white"/>
</svg>
